<svg xmlns="http://www.w3.org/2000/svg" viewBox="0 0 198 282"><g fill="#000"><rect x="94" y="86" width="1" height="1"/><rect x="104" y="86" width="1" height="1"/><rect x="94" y="87" width="2" height="1"/><rect x="102" y="87" width="3" height="1"/><rect x="93" y="88" width="5" height="1"/><rect x="100" y="88" width="6" height="1"/><rect x="93" y="89" width="13" height="1"/><rect x="92" y="90" width="15" height="1"/><rect x="92" y="91" width="15" height="1"/><rect x="91" y="92" width="17" height="1"/><rect x="91" y="93" width="17" height="1"/><rect x="90" y="94" width="19" height="1"/><rect x="90" y="95" width="19" height="1"/><rect x="89" y="96" width="21" height="1"/><rect x="89" y="97" width="21" height="1"/><rect x="88" y="98" width="23" height="1"/><rect x="88" y="99" width="23" height="1"/><rect x="87" y="100" width="12" height="1"/><rect x="100" y="100" width="12" height="1"/><rect x="87" y="101" width="12" height="1"/><rect x="100" y="101" width="12" height="1"/><rect x="86" y="102" width="12" height="1"/><rect x="100" y="102" width="13" height="1"/><rect x="86" y="103" width="12" height="1"/><rect x="101" y="103" width="12" height="1"/><rect x="85" y="104" width="12" height="1"/><rect x="102" y="104" width="12" height="1"/><rect x="85" y="105" width="12" height="1"/><rect x="102" y="105" width="12" height="1"/><rect x="84" y="106" width="12" height="1"/><rect x="103" y="106" width="12" height="1"/><rect x="84" y="107" width="12" height="1"/><rect x="103" y="107" width="12" height="1"/><rect x="83" y="108" width="12" height="1"/><rect x="104" y="108" width="12" height="1"/><rect x="83" y="109" width="12" height="1"/><rect x="104" y="109" width="12" height="1"/><rect x="82" y="110" width="12" height="1"/><rect x="105" y="110" width="12" height="1"/><rect x="82" y="111" width="12" height="1"/><rect x="105" y="111" width="12" height="1"/><rect x="81" y="112" width="12" height="1"/><rect x="106" y="112" width="12" height="1"/><rect x="81" y="113" width="12" height="1"/><rect x="106" y="113" width="12" height="1"/><rect x="80" y="114" width="12" height="1"/><rect x="107" y="114" width="12" height="1"/><rect x="80" y="115" width="12" height="1"/><rect x="107" y="115" width="12" height="1"/><rect x="79" y="116" width="12" height="1"/><rect x="108" y="116" width="12" height="1"/><rect x="79" y="117" width="12" height="1"/><rect x="108" y="117" width="12" height="1"/><rect x="78" y="118" width="43" height="1"/><rect x="78" y="119" width="43" height="1"/><rect x="77" y="120" width="45" height="1"/><rect x="77" y="121" width="45" height="1"/><rect x="76" y="122" width="47" height="1"/><rect x="76" y="123" width="47" height="1"/><rect x="75" y="124" width="49" height="1"/><rect x="75" y="125" width="49" height="1"/><rect x="74" y="126" width="12" height="1"/><rect x="113" y="126" width="12" height="1"/><rect x="74" y="127" width="12" height="1"/><rect x="113" y="127" width="12" height="1"/><rect x="73" y="128" width="12" height="1"/><rect x="114" y="128" width="12" height="1"/><rect x="73" y="129" width="12" height="1"/><rect x="114" y="129" width="12" height="1"/><rect x="72" y="130" width="12" height="1"/><rect x="115" y="130" width="12" height="1"/><rect x="72" y="131" width="12" height="1"/><rect x="115" y="131" width="12" height="1"/><rect x="71" y="132" width="12" height="1"/><rect x="116" y="132" width="12" height="1"/><rect x="71" y="133" width="12" height="1"/><rect x="116" y="133" width="12" height="1"/><rect x="70" y="134" width="12" height="1"/><rect x="117" y="134" width="12" height="1"/><rect x="70" y="135" width="12" height="1"/><rect x="117" y="135" width="12" height="1"/><rect x="69" y="136" width="12" height="1"/><rect x="118" y="136" width="12" height="1"/><rect x="69" y="137" width="12" height="1"/><rect x="118" y="137" width="12" height="1"/><rect x="68" y="138" width="12" height="1"/><rect x="119" y="138" width="12" height="1"/><rect x="68" y="139" width="12" height="1"/><rect x="119" y="139" width="12" height="1"/><rect x="67" y="140" width="12" height="1"/><rect x="120" y="140" width="12" height="1"/><rect x="67" y="141" width="12" height="1"/><rect x="120" y="141" width="12" height="1"/><rect x="66" y="142" width="13" height="1"/><rect x="121" y="142" width="12" height="1"/><rect x="66" y="143" width="12" height="1"/><rect x="121" y="143" width="12" height="1"/><rect x="65" y="144" width="13" height="1"/><rect x="122" y="144" width="12" height="1"/><rect x="65" y="145" width="12" height="1"/><rect x="122" y="145" width="12" height="1"/><rect x="65" y="146" width="12" height="1"/><rect x="123" y="146" width="12" height="1"/><rect x="64" y="147" width="12" height="1"/><rect x="123" y="147" width="12" height="1"/><rect x="64" y="148" width="12" height="1"/><rect x="124" y="148" width="12" height="1"/><rect x="63" y="149" width="12" height="1"/><rect x="124" y="149" width="12" height="1"/><rect x="63" y="150" width="12" height="1"/><rect x="125" y="150" width="12" height="1"/><rect x="62" y="151" width="12" height="1"/><rect x="125" y="151" width="12" height="1"/><rect x="62" y="152" width="12" height="1"/><rect x="126" y="152" width="12" height="1"/><rect x="61" y="153" width="12" height="1"/><rect x="126" y="153" width="12" height="1"/><rect x="60" y="154" width="13" height="1"/><rect x="127" y="154" width="12" height="1"/><rect x="60" y="155" width="12" height="1"/><rect x="127" y="155" width="10" height="1"/><rect x="62" y="156" width="10" height="1"/><rect x="128" y="156" width="7" height="1"/><rect x="65" y="157" width="6" height="1"/><rect x="128" y="157" width="6" height="1"/><rect x="67" y="158" width="4" height="1"/><rect x="129" y="158" width="3" height="1"/><rect x="69" y="159" width="1" height="1"/><rect x="129" y="159" width="1" height="1"/><rect x="196" y="225" width="1" height="1"/><rect x="38" y="226" width="1" height="1"/><rect x="46" y="226" width="1" height="1"/><rect x="58" y="226" width="1" height="1"/><rect x="64" y="226" width="2" height="1"/><rect x="69" y="226" width="1" height="1"/><rect x="71" y="226" width="1" height="1"/><rect x="196" y="226" width="1" height="1"/><rect x="38" y="227" width="1" height="1"/><rect x="46" y="227" width="1" height="1"/><rect x="58" y="227" width="1" height="1"/><rect x="65" y="227" width="1" height="1"/><rect x="68" y="227" width="1" height="1"/><rect x="196" y="227" width="1" height="1"/><rect x="38" y="228" width="1" height="1"/><rect x="41" y="228" width="2" height="1"/><rect x="46" y="228" width="1" height="1"/><rect x="48" y="228" width="2" height="1"/><rect x="58" y="228" width="1" height="1"/><rect x="65" y="228" width="1" height="1"/><rect x="68" y="228" width="1" height="1"/><rect x="196" y="228" width="1" height="1"/><rect x="38" y="229" width="1" height="1"/><rect x="43" y="229" width="1" height="1"/><rect x="46" y="229" width="1" height="1"/><rect x="50" y="229" width="2" height="1"/><rect x="55" y="229" width="1" height="1"/><rect x="58" y="229" width="1" height="1"/><rect x="65" y="229" width="1" height="1"/><rect x="68" y="229" width="1" height="1"/><rect x="196" y="229" width="1" height="1"/><rect x="38" y="230" width="1" height="1"/><rect x="42" y="230" width="2" height="1"/><rect x="46" y="230" width="1" height="1"/><rect x="50" y="230" width="2" height="1"/><rect x="58" y="230" width="1" height="1"/><rect x="65" y="230" width="1" height="1"/><rect x="68" y="230" width="1" height="1"/><rect x="72" y="230" width="1" height="1"/><rect x="196" y="230" width="1" height="1"/><rect x="38" y="231" width="1" height="1"/><rect x="40" y="231" width="1" height="1"/><rect x="43" y="231" width="1" height="1"/><rect x="46" y="231" width="1" height="1"/><rect x="50" y="231" width="2" height="1"/><rect x="58" y="231" width="1" height="1"/><rect x="65" y="231" width="1" height="1"/><rect x="68" y="231" width="1" height="1"/><rect x="72" y="231" width="1" height="1"/><rect x="196" y="231" width="1" height="1"/><rect x="38" y="232" width="1" height="1"/><rect x="40" y="232" width="1" height="1"/><rect x="43" y="232" width="1" height="1"/><rect x="46" y="232" width="1" height="1"/><rect x="54" y="232" width="1" height="1"/><rect x="58" y="232" width="1" height="1"/><rect x="65" y="232" width="1" height="1"/><rect x="69" y="232" width="1" height="1"/><rect x="71" y="232" width="1" height="1"/><rect x="41" y="233" width="1" height="1"/><rect x="46" y="233" width="1" height="1"/></g></svg>
