<svg xmlns="http://www.w3.org/2000/svg" viewBox="0 0 35 33"><g fill="#000"><rect x="13" y="4" width="1" height="1"/><rect x="13" y="5" width="2" height="1"/><rect x="29" y="5" width="2" height="1"/><rect x="13" y="6" width="3" height="1"/><rect x="28" y="6" width="3" height="1"/><rect x="14" y="7" width="3" height="1"/><rect x="27" y="7" width="3" height="1"/><rect x="14" y="8" width="4" height="1"/><rect x="27" y="8" width="3" height="1"/><rect x="15" y="9" width="4" height="1"/><rect x="26" y="9" width="3" height="1"/><rect x="15" y="10" width="5" height="1"/><rect x="25" y="10" width="4" height="1"/><rect x="16" y="11" width="5" height="1"/><rect x="24" y="11" width="4" height="1"/><rect x="17" y="12" width="10" height="1"/><rect x="16" y="13" width="10" height="1"/><rect x="13" y="14" width="13" height="1"/><rect x="8" y="15" width="17" height="1"/><rect x="4" y="16" width="20" height="1"/><rect x="19" y="17" width="4" height="1"/><rect x="18" y="18" width="5" height="1"/><rect x="18" y="19" width="4" height="1"/><rect x="17" y="20" width="4" height="1"/><rect x="16" y="21" width="4" height="1"/><rect x="16" y="22" width="3" height="1"/><rect x="15" y="23" width="4" height="1"/><rect x="14" y="24" width="4" height="1"/><rect x="14" y="25" width="3" height="1"/><rect x="13" y="26" width="3" height="1"/><rect x="12" y="27" width="3" height="1"/><rect x="12" y="28" width="2" height="1"/></g></svg>
