<?xml version="1.0" encoding="UTF-8"?>
<svg xmlns="http://www.w3.org/2000/svg" width="57.5292" height="68.7705" viewBox="657.579 57.2881 57.5292 68.7705">
  <title>pe (פ)</title>
  <path transform="translate(-92 0)" d="M 552.71206,71.95002 C 553.09051,71.33767 557.7491,68.01449 563.06448,64.56518 C 574.35118,57.24089 582.11593,50.39315 589.1313,41.57682 C 597.20479,31.43073 599.05161,24.97299 595.02992,20.95129 C 591.80955,17.73092 582.65228,18.61278 577.70089,22.62011 C 564.46734,33.33047 564.142,33.51267 564.142,30.21341 C 564.142,25.10207 578.63452,11.81201 585.64185,10.49742 C 590.16888,9.64815 594.99046,11.38584 599.99651,15.67083 C 604.93733,19.9 605.27122,22.71643 601.82128,31.06337 C 595.02081,47.51675 577.44992,65.71879 563.10641,71.1689 C 557.52895,73.28817 551.61014,73.73296 552.71206,71.95002 z"/>
</svg>
