<?xml version="1.0" encoding="UTF-8"?>
<svg xmlns="http://www.w3.org/2000/svg" width="60.0164" height="64.2829" viewBox="656.335 127.007 60.0164 64.2829">
  <title>tsadi (צ)</title>
  <path transform="translate(-92 0)" d="M 573.28862,135.63318 C 568.64852,130.33349 564.26358,122.89207 561.06882,114.89563 C 558.00598,107.22939 550.65892,80.841256 551.38511,80.115066 C 551.60624,79.893936 552.76107,80.022126 553.9514,80.399926 C 555.32091,80.834586 557.09282,83.228926 558.77676,86.920306 L 561.43788,92.753779 L 568.93788,90.338093 C 573.06288,89.009476 577.38064,87.916386 578.53289,87.909026 C 581.04138,87.892986 583.20905,90.153833 585.23156,94.895629 C 586.05262,96.820629 587.40679,99.289659 588.24082,100.38235 C 589.68473,102.27408 589.84901,102.28603 591.6763,100.63235 C 593.05197,99.387389 595.30352,98.895629 599.62795,98.895629 C 605.4808,98.895629 605.64667,98.968189 605.19498,101.33101 C 604.8304,103.23821 603.34918,104.31895 598.36529,106.31413 C 585.4562,111.482 580.09308,110.48896 581.28381,103.15133 C 582.02457,98.586589 580.54002,95.084859 577.54542,94.333269 C 574.34567,93.530179 572.04022,94.314479 567.11673,97.881019 L 563.09264,100.79607 L 564.40135,105.75717 C 566.09706,112.18528 569.78858,120.19505 574.32065,127.27982 C 579.74024,135.75201 578.95531,142.10535 573.28862,135.63318 z"/>
</svg>
