<?xml version="1.0" encoding="UTF-8"?>
<svg xmlns="http://www.w3.org/2000/svg" width="47.2112" height="41.5539" viewBox="662.738 402.836 47.2112 41.5539">
  <title>tav (ת)</title>
  <path transform="translate(-92 0)" d="M 589.3714,386.09269 C 584.77002,382.55109 580.53301,379.65329 579.95584,379.65329 C 579.37866,379.65329 574.14343,382.14259 568.32199,385.18509 L 557.73756,390.71689 L 566.88923,382.11369 L 576.04091,373.51049 L 572.0533,365.0012 C 569.86011,360.32107 568.30345,356.2541 568.59405,355.96351 C 569.56197,354.99559 575.14204,359.69336 578.38,364.20214 C 580.13813,366.65029 581.88696,368.65333 582.26629,368.65333 C 582.64562,368.65333 584.93184,366.93777 587.34677,364.84098 C 593.43657,359.55345 596.38127,357.65333 598.48581,357.65333 C 599.80144,357.65333 598.38928,359.88416 593.2634,365.90333 C 589.3993,370.44079 586.23772,374.38459 586.23766,374.66719 C 586.23761,374.94989 588.96943,378.20799 592.30838,381.90749 C 596.22981,386.25239 598.26562,389.32399 598.05838,390.58299 C 597.78402,392.24979 596.52597,391.59959 589.3714,386.09269 z"/>
</svg>
