<svg xmlns="http://www.w3.org/2000/svg" viewBox="0 0 120 116"><g fill="#000"><rect x="54" y="12" width="3" height="1"/><rect x="61" y="12" width="3" height="1"/><rect x="54" y="13" width="4" height="1"/><rect x="59" y="13" width="5" height="1"/><rect x="54" y="14" width="11" height="1"/><rect x="53" y="15" width="12" height="1"/><rect x="53" y="16" width="13" height="1"/><rect x="52" y="17" width="14" height="1"/><rect x="52" y="18" width="15" height="1"/><rect x="51" y="19" width="16" height="1"/><rect x="51" y="20" width="17" height="1"/><rect x="50" y="21" width="18" height="1"/><rect x="50" y="22" width="19" height="1"/><rect x="49" y="23" width="20" height="1"/><rect x="49" y="24" width="21" height="1"/><rect x="48" y="25" width="11" height="1"/><rect x="60" y="25" width="10" height="1"/><rect x="48" y="26" width="10" height="1"/><rect x="60" y="26" width="11" height="1"/><rect x="47" y="27" width="11" height="1"/><rect x="61" y="27" width="10" height="1"/><rect x="47" y="28" width="10" height="1"/><rect x="61" y="28" width="11" height="1"/><rect x="46" y="29" width="11" height="1"/><rect x="62" y="29" width="10" height="1"/><rect x="46" y="30" width="10" height="1"/><rect x="62" y="30" width="11" height="1"/><rect x="45" y="31" width="11" height="1"/><rect x="63" y="31" width="10" height="1"/><rect x="45" y="32" width="10" height="1"/><rect x="63" y="32" width="11" height="1"/><rect x="44" y="33" width="11" height="1"/><rect x="64" y="33" width="10" height="1"/><rect x="44" y="34" width="10" height="1"/><rect x="64" y="34" width="11" height="1"/><rect x="43" y="35" width="11" height="1"/><rect x="65" y="35" width="11" height="1"/><rect x="43" y="36" width="10" height="1"/><rect x="65" y="36" width="11" height="1"/><rect x="42" y="37" width="11" height="1"/><rect x="66" y="37" width="11" height="1"/><rect x="42" y="38" width="10" height="1"/><rect x="66" y="38" width="11" height="1"/><rect x="41" y="39" width="11" height="1"/><rect x="67" y="39" width="11" height="1"/><rect x="41" y="40" width="10" height="1"/><rect x="67" y="40" width="11" height="1"/><rect x="40" y="41" width="11" height="1"/><rect x="68" y="41" width="11" height="1"/><rect x="40" y="42" width="10" height="1"/><rect x="68" y="42" width="11" height="1"/><rect x="39" y="43" width="11" height="1"/><rect x="69" y="43" width="11" height="1"/><rect x="39" y="44" width="11" height="1"/><rect x="69" y="44" width="11" height="1"/><rect x="38" y="45" width="11" height="1"/><rect x="70" y="45" width="11" height="1"/><rect x="38" y="46" width="11" height="1"/><rect x="70" y="46" width="11" height="1"/><rect x="37" y="47" width="11" height="1"/><rect x="71" y="47" width="11" height="1"/><rect x="37" y="48" width="11" height="1"/><rect x="71" y="48" width="11" height="1"/><rect x="36" y="49" width="11" height="1"/><rect x="72" y="49" width="11" height="1"/><rect x="36" y="50" width="11" height="1"/><rect x="72" y="50" width="11" height="1"/><rect x="36" y="51" width="10" height="1"/><rect x="73" y="51" width="11" height="1"/><rect x="35" y="52" width="11" height="1"/><rect x="73" y="52" width="11" height="1"/><rect x="35" y="53" width="10" height="1"/><rect x="74" y="53" width="11" height="1"/><rect x="34" y="54" width="11" height="1"/><rect x="49" y="54" width="11" height="1"/><rect x="75" y="54" width="10" height="1"/><rect x="34" y="55" width="52" height="1"/><rect x="33" y="56" width="53" height="1"/><rect x="33" y="57" width="54" height="1"/><rect x="32" y="58" width="55" height="1"/><rect x="32" y="59" width="56" height="1"/><rect x="31" y="60" width="57" height="1"/><rect x="31" y="61" width="58" height="1"/><rect x="30" y="62" width="59" height="1"/><rect x="30" y="63" width="10" height="1"/><rect x="59" y="63" width="9" height="1"/><rect x="79" y="63" width="11" height="1"/><rect x="29" y="64" width="11" height="1"/><rect x="80" y="64" width="10" height="1"/><rect x="29" y="65" width="10" height="1"/><rect x="80" y="65" width="11" height="1"/><rect x="28" y="66" width="11" height="1"/><rect x="81" y="66" width="10" height="1"/><rect x="28" y="67" width="10" height="1"/><rect x="81" y="67" width="11" height="1"/><rect x="27" y="68" width="11" height="1"/><rect x="82" y="68" width="10" height="1"/><rect x="27" y="69" width="10" height="1"/><rect x="82" y="69" width="11" height="1"/><rect x="26" y="70" width="11" height="1"/><rect x="83" y="70" width="10" height="1"/><rect x="26" y="71" width="10" height="1"/><rect x="83" y="71" width="11" height="1"/><rect x="25" y="72" width="11" height="1"/><rect x="84" y="72" width="10" height="1"/><rect x="25" y="73" width="10" height="1"/><rect x="84" y="73" width="11" height="1"/><rect x="24" y="74" width="11" height="1"/><rect x="85" y="74" width="10" height="1"/><rect x="24" y="75" width="10" height="1"/><rect x="85" y="75" width="11" height="1"/><rect x="23" y="76" width="11" height="1"/><rect x="86" y="76" width="10" height="1"/><rect x="23" y="77" width="10" height="1"/><rect x="86" y="77" width="11" height="1"/><rect x="22" y="78" width="11" height="1"/><rect x="87" y="78" width="10" height="1"/><rect x="22" y="79" width="10" height="1"/><rect x="87" y="79" width="11" height="1"/><rect x="21" y="80" width="11" height="1"/><rect x="88" y="80" width="10" height="1"/><rect x="21" y="81" width="10" height="1"/><rect x="88" y="81" width="11" height="1"/><rect x="20" y="82" width="11" height="1"/><rect x="89" y="82" width="10" height="1"/><rect x="20" y="83" width="10" height="1"/><rect x="89" y="83" width="11" height="1"/><rect x="19" y="84" width="11" height="1"/><rect x="90" y="84" width="10" height="1"/><rect x="19" y="85" width="10" height="1"/><rect x="90" y="85" width="11" height="1"/><rect x="18" y="86" width="11" height="1"/><rect x="91" y="86" width="10" height="1"/><rect x="18" y="87" width="10" height="1"/><rect x="91" y="87" width="11" height="1"/><rect x="17" y="88" width="11" height="1"/><rect x="92" y="88" width="10" height="1"/><rect x="17" y="89" width="10" height="1"/><rect x="92" y="89" width="11" height="1"/><rect x="16" y="90" width="11" height="1"/><rect x="93" y="90" width="10" height="1"/><rect x="16" y="91" width="10" height="1"/><rect x="93" y="91" width="11" height="1"/><rect x="15" y="92" width="11" height="1"/><rect x="94" y="92" width="10" height="1"/><rect x="15" y="93" width="10" height="1"/><rect x="94" y="93" width="11" height="1"/><rect x="14" y="94" width="11" height="1"/><rect x="95" y="94" width="10" height="1"/><rect x="14" y="95" width="10" height="1"/><rect x="95" y="95" width="11" height="1"/><rect x="13" y="96" width="11" height="1"/><rect x="96" y="96" width="10" height="1"/><rect x="13" y="97" width="10" height="1"/><rect x="96" y="97" width="11" height="1"/><rect x="12" y="98" width="11" height="1"/><rect x="97" y="98" width="10" height="1"/><rect x="12" y="99" width="10" height="1"/><rect x="97" y="99" width="11" height="1"/><rect x="11" y="100" width="11" height="1"/><rect x="98" y="100" width="8" height="1"/><rect x="13" y="101" width="8" height="1"/><rect x="98" y="101" width="7" height="1"/><rect x="15" y="102" width="6" height="1"/><rect x="99" y="102" width="4" height="1"/><rect x="17" y="103" width="3" height="1"/><rect x="99" y="103" width="2" height="1"/><rect x="19" y="104" width="1" height="1"/></g></svg>
