<svg xmlns="http://www.w3.org/2000/svg" viewBox="0 0 40 32"><g fill="#000"><rect x="29" y="0" width="2" height="1"/><rect x="29" y="1" width="2" height="1"/><rect x="33" y="7" width="2" height="1"/><rect x="31" y="8" width="5" height="1"/><rect x="29" y="9" width="6" height="1"/><rect x="27" y="10" width="8" height="1"/><rect x="25" y="11" width="10" height="1"/><rect x="23" y="12" width="12" height="1"/><rect x="21" y="13" width="8" height="1"/><rect x="30" y="13" width="5" height="1"/><rect x="19" y="14" width="7" height="1"/><rect x="30" y="14" width="4" height="1"/><rect x="16" y="15" width="8" height="1"/><rect x="30" y="15" width="4" height="1"/><rect x="14" y="16" width="7" height="1"/><rect x="30" y="16" width="4" height="1"/><rect x="12" y="17" width="7" height="1"/><rect x="30" y="17" width="4" height="1"/><rect x="10" y="18" width="7" height="1"/><rect x="30" y="18" width="3" height="1"/><rect x="8" y="19" width="8" height="1"/><rect x="29" y="19" width="4" height="1"/><rect x="6" y="20" width="14" height="1"/><rect x="29" y="20" width="4" height="1"/><rect x="4" y="21" width="29" height="1"/><rect x="4" y="22" width="28" height="1"/><rect x="11" y="23" width="21" height="1"/><rect x="20" y="24" width="11" height="1"/></g></svg>
