<svg xmlns="http://www.w3.org/2000/svg" viewBox="0 0 20 21"><g fill="#000"><rect x="4" y="4" width="4" height="1"/><rect x="12" y="4" width="4" height="1"/><rect x="5" y="5" width="2" height="1"/><rect x="13" y="5" width="2" height="1"/><rect x="5" y="6" width="2" height="1"/><rect x="13" y="6" width="2" height="1"/><rect x="5" y="7" width="2" height="1"/><rect x="13" y="7" width="2" height="1"/><rect x="5" y="8" width="2" height="1"/><rect x="13" y="8" width="2" height="1"/><rect x="5" y="9" width="2" height="1"/><rect x="13" y="9" width="2" height="1"/><rect x="5" y="10" width="10" height="1"/><rect x="5" y="11" width="2" height="1"/><rect x="13" y="11" width="2" height="1"/><rect x="5" y="12" width="2" height="1"/><rect x="13" y="12" width="2" height="1"/><rect x="5" y="13" width="2" height="1"/><rect x="13" y="13" width="2" height="1"/><rect x="5" y="14" width="2" height="1"/><rect x="13" y="14" width="2" height="1"/><rect x="5" y="15" width="2" height="1"/><rect x="13" y="15" width="2" height="1"/><rect x="4" y="16" width="4" height="1"/><rect x="12" y="16" width="4" height="1"/><rect x="9" y="18" width="1" height="1"/><rect x="9" y="19" width="2" height="1"/></g></svg>
