<svg xmlns="http://www.w3.org/2000/svg" viewBox="0 0 36 34"><g fill="#000"><rect x="14" y="4" width="1" height="1"/><rect x="14" y="5" width="2" height="1"/><rect x="30" y="5" width="2" height="1"/><rect x="14" y="6" width="3" height="1"/><rect x="29" y="6" width="3" height="1"/><rect x="15" y="7" width="3" height="1"/><rect x="28" y="7" width="3" height="1"/><rect x="15" y="8" width="4" height="1"/><rect x="28" y="8" width="3" height="1"/><rect x="16" y="9" width="4" height="1"/><rect x="27" y="9" width="3" height="1"/><rect x="16" y="10" width="5" height="1"/><rect x="26" y="10" width="4" height="1"/><rect x="17" y="11" width="5" height="1"/><rect x="25" y="11" width="4" height="1"/><rect x="18" y="12" width="10" height="1"/><rect x="17" y="13" width="10" height="1"/><rect x="14" y="14" width="13" height="1"/><rect x="9" y="15" width="17" height="1"/><rect x="5" y="16" width="20" height="1"/><rect x="20" y="17" width="4" height="1"/><rect x="19" y="18" width="5" height="1"/><rect x="19" y="19" width="4" height="1"/><rect x="18" y="20" width="4" height="1"/><rect x="17" y="21" width="4" height="1"/><rect x="17" y="22" width="3" height="1"/><rect x="16" y="23" width="4" height="1"/><rect x="15" y="24" width="4" height="1"/><rect x="15" y="25" width="3" height="1"/><rect x="14" y="26" width="3" height="1"/><rect x="13" y="27" width="3" height="1"/><rect x="13" y="28" width="2" height="1"/></g></svg>
