<svg xmlns="http://www.w3.org/2000/svg" viewBox="0 0 47 34"><g fill="#000"><rect x="14" y="0" width="5" height="1"/><rect x="13" y="1" width="3" height="1"/><rect x="13" y="5" width="1" height="1"/><rect x="13" y="6" width="2" height="1"/><rect x="13" y="7" width="3" height="1"/><rect x="13" y="8" width="3" height="1"/><rect x="21" y="8" width="4" height="1"/><rect x="13" y="9" width="4" height="1"/><rect x="18" y="9" width="8" height="1"/><rect x="14" y="10" width="12" height="1"/><rect x="14" y="11" width="6" height="1"/><rect x="24" y="11" width="3" height="1"/><rect x="14" y="12" width="4" height="1"/><rect x="25" y="12" width="2" height="1"/><rect x="30" y="12" width="4" height="1"/><rect x="15" y="13" width="3" height="1"/><rect x="25" y="13" width="10" height="1"/><rect x="15" y="14" width="3" height="1"/><rect x="25" y="14" width="9" height="1"/><rect x="15" y="15" width="3" height="1"/><rect x="25" y="15" width="7" height="1"/><rect x="16" y="16" width="2" height="1"/><rect x="25" y="16" width="4" height="1"/><rect x="16" y="17" width="3" height="1"/><rect x="16" y="18" width="3" height="1"/><rect x="17" y="19" width="3" height="1"/><rect x="17" y="20" width="3" height="1"/><rect x="18" y="21" width="3" height="1"/><rect x="18" y="22" width="3" height="1"/><rect x="19" y="23" width="3" height="1"/><rect x="19" y="24" width="3" height="1"/><rect x="20" y="25" width="3" height="1"/><rect x="21" y="26" width="2" height="1"/><rect x="21" y="27" width="2" height="1"/><rect x="26" y="31" width="5" height="1"/><rect x="22" y="32" width="10" height="1"/><rect x="19" y="33" width="7" height="1"/><rect x="29" y="33" width="4" height="1"/></g></svg>
